<?xml version="1.0" standalone="no"?>
<!DOCTYPE svg PUBLIC "-//W3C//DTD SVG 20010904//EN"
 "http://www.w3.org/TR/2001/REC-SVG-20010904/DTD/svg10.dtd">
<svg version="1.0" xmlns="http://www.w3.org/2000/svg"
 width="70.000000pt" height="70.000000pt" viewBox="0 0 70.000000 70.000000"
 preserveAspectRatio="xMidYMid meet">
<metadata>
Created by potrace 1.14, written by Peter Selinger 2001-2017
</metadata>
<g transform="translate(0.000000,70.000000) scale(0.100000,-0.100000)"
fill="#000000" stroke="none">
<path d="M491 489 l-181 -181 -137 137 -138 137 -5 -278 c-4 -213 -2 -280 7
-284 10 -4 604 -5 637 -1 5 1 7 4 3 7 -3 3 -2 17 3 30 6 16 6 24 -1 24 -6 0
-6 7 1 19 5 11 7 22 2 25 -7 4 -7 65 1 124 2 18 2 34 -2 36 -7 4 -6 68 2 124
2 18 2 34 -2 36 -7 4 -6 68 2 124 2 18 1 34 -2 37 -4 2 -6 18 -5 34 1 17 1 31
-1 31 -2 0 -85 -81 -184 -181z"/>
</g>
</svg>
